name Run_400 02_newCOP3_v24.mot
datacolumns 19
datarows 122
range 2.74 2.861
DataType=double
version=3
OpenSimVersion=4.3-2021-08-27-4bc7ad9
endheader
time	R_ground_force_vx	R_ground_force_vy	R_ground_force_vz	R_ground_force_px	R_ground_force_py	R_ground_force_pz	L_ground_force_vx	L_ground_force_vy	L_ground_force_vz	L_ground_force_px	L_ground_force_py	L_ground_force_pz	R_ground_torque_x	R_ground_torque_y	R_ground_torque_z	L_ground_torque_x	L_ground_torque_y	L_ground_torque_z
2.74	0	0	0	0	0	0	0	0	0	0	0	0	0	0	0	0	0	0
2.741	0	0	0	0	0	0	0	0	0	0	0	0	0	0	0	0	0	0
2.742	0	0	0	0	0	0	0	0	0	0	0	0	0	0	0	0	0	0
2.743	0	0	0	0	0	0	0	0	0	0	0	0	0	0	0	0	0	0
2.744	0	0	0	0	0	0	0	0	0	0	0	0	0	0	0	0	0	0
2.745	0	0	0	0	0	0	0	0	0	0	0	0	0	0	0	0	0	0
2.746	0	0	0	0	0	0	0	0	0	0	0	0	0	0	0	0	0	0
2.747	0	0	0	0	0	0	0	0	0	0	0	0	0	0	0	0	0	0
2.748	0	0	0	0	0	0	0	0	0	0	0	0	0	0	0	0	0	0
2.749	0	0	0	0	0	0	0	0	0	0	0	0	0	0	0	0	0	0
2.75	0	0	0	0	0	0	0	0	0	0	0	0	0	0	0	0	0	0
2.751	0	0	0	0	0	0	0	0	0	0	0	0	0	0	0	0	0	0
2.752	0	0	0	0	0	0	0	0	0	0	0	0	0	0	0	0	0	0
2.753	0	0	0	0	0	0	0	0	0	0	0	0	0	0	0	0	0	0
2.754	0	0	0	0	0	0	0	0	0	0	0	0	0	0	0	0	0	0
2.755	0	0	0	0	0	0	0	0	0	0	0	0	0	0	0	0	0	0
2.756	0	0	0	0	0	0	0	0	0	0	0	0	0	0	0	0	0	0
2.757	0	0	0	0	0	0	0	0	0	0	0	0	0	0	0	0	0	0
2.758	0	0	0	0	0	0	0	0	0	0	0	0	0	0	0	0	0	0
2.759	0	0	0	0	0	0	0	0	0	0	0	0	0	0	0	0	0	0
2.76	0	0	0	0	0	0	0	0	0	0	0	0	0	0	0	0	0	0
2.761	0	0	0	0	0	0	0	0	0	0	0	0	0	0	0	0	0	0
2.762	0	0	0	0	0	0	0	0	0	0	0	0	0	0	0	0	0	0
2.763	0	0	0	0	0	0	0	0	0	0	0	0	0	0	0	0	0	0
2.764	0	0	0	0	0	0	0	0	0	0	0	0	0	0	0	0	0	0
2.765	0	0	0	0	0	0	0	0	0	0	0	0	0	0	0	0	0	0
2.766	0	0	0	0	0	0	0	0	0	0	0	0	0	0	0	0	0	0
2.767	0	0	0	0	0	0	0	0	0	0	0	0	0	0	0	0	0	0
2.768	0	0	0	0	0	0	0	0	0	0	0	0	0	0	0	0	0	0
2.769	0	0	0	0	0	0	0	0	0	0	0	0	0	0	0	0	0	0
2.77	0	0	0	0	0	0	0	0	0	0	0	0	0	0	0	0	0	0
2.771	0	0	0	0	0	0	0	0	0	0	0	0	0	0	0	0	0	0
2.772	0	0	0	0	0	0	0	0	0	0	0	0	0	0	0	0	0	0
2.773	0	0	0	0	0	0	0	0	0	0	0	0	0	0	0	0	0	0
2.774	0	0	0	0	0	0	0	0	0	0	0	0	0	0	0	0	0	0
2.775	0	0	0	0	0	0	0	0	0	0	0	0	0	0	0	0	0	0
2.776	0	0	0	0	0	0	0	0	0	0	0	0	0	0	0	0	0	0
2.777	0	0	0	0	0	0	0	0	0	0	0	0	0	0	0	0	0	0
2.778	0	0	0	0	0	0	0	0	0	0	0	0	0	0	0	0	0	0
2.779	0	0	0	0	0	0	0	0	0	0	0	0	0	0	0	0	0	0
2.78	0	0	0	0	0	0	0	0	0	0	0	0	0	0	0	0	0	0
2.781	0	0	0	0	0	0	0	0	0	0	0	0	0	0	0	0	0	0
2.782	0	0	0	0	0	0	0	0	0	0	0	0	0	0	0	0	0	0
2.783	0	0	0	0	0	0	0	0	0	0	0	0	0	0	0	0	0	0
2.784	0	0	0	0	0	0	0	0	0	0	0	0	0	0	0	0	0	0
2.785	0	0	0	0	0	0	0	0	0	0	0	0	0	0	0	0	0	0
2.786	0	0	0	0	0	0	0	0	0	0	0	0	0	0	0	0	0	0
2.787	0	0	0	0	0	0	0	0	0	0	0	0	0	0	0	0	0	0
2.788	0	0	0	0	0	0	0	0	0	0	0	0	0	0	0	0	0	0
2.789	0	0	0	0	0	0	0	0	0	0	0	0	0	0	0	0	0	0
2.79	-4.950604	10.342031	-2.944164	0.952589	0	-0.138543	0	0	0	0	0	0	0	-1.176075	0	0	0	0
2.791	-5.341377	11.644887	-3.504519	0.952582	0	-0.148947	0	0	0	0	0	0	0	-1.071851	0	0	0	0
2.792	-5.84797	13.177372	-4.112761	0.952734	0	-0.158082	0	0	0	0	0	0	0	-0.959006	0	0	0	0
2.793	-6.489365	14.977879	-4.770235	0.953068	0	-0.165968	0	0	0	0	0	0	0	-0.837665	0	0	0	0
2.794	-7.28551	17.089479	-5.478397	0.953586	0	-0.172665	0	0	0	0	0	0	0	-0.707996	0	0	0	0
2.795	-8.257197	19.560116	-6.238827	0.954278	0	-0.178271	0	0	0	0	0	0	0	-0.570214	0	0	0	0
2.796	-9.425912	22.442728	-7.053236	0.9551230000000001	0	-0.1829	0	0	0	0	0	0	0	-0.424582	0	0	0	0
2.797	-10.81364	25.795296	-7.92347	0.9560999999999999	0	-0.186679	0	0	0	0	0	0	0	-0.271407	0	0	0	0
2.798	-12.442636	29.680801	-8.851495999999999	0.957183	0	-0.189734	0	0	0	0	0	0	0	-0.111047	0	0	0	0
2.799	-14.335165	34.167084	-9.839378999999999	0.958348	0	-0.192186	0	0	0	0	0	0	-0	0.056097	-0	0	0	0
2.8	-16.513176	39.32658	-10.889252	0.959575	0	-0.194144	0	0	0	0	0	0	-0	0.229577	-0	0	0	0
2.801	-18.997953	45.235924	-12.003267	0.960844	0	-0.195707	0	0	0	0	0	0	-0	0.408897	-0	0	0	0
2.802	-21.809708	51.975403	-13.183547	0.962138	0	-0.196957	0	0	0	0	0	0	-0	0.59352	-0	0	0	0
2.803	-24.967127	59.628262	-14.432113	0.963441	0	-0.197964	0	0	0	0	0	0	-0	0.782865	-0	0	0	0
2.804	-28.486874	68.279816	-15.750812	0.96474	0	-0.198786	0	0	0	0	0	0	-0	0.976308	-0	0	0	0
2.805	-32.383057	78.01638800000001	-17.141235	0.966025	0	-0.199469	0	0	0	0	0	0	-0	1.173187	-0	0	0	0
2.806	-36.666653	88.924042	-18.60463	0.967282	0	-0.200051	0	0	0	0	0	0	-0	1.372803	-0	0	0	0
2.807	-41.34491	101.087173	-20.141794	0.968504	0	-0.200561	0	0	0	0	0	0	-0	1.574423	-0	0	0	0
2.808	-46.420738	114.586906	-21.752991	0.969678	0	-0.201021	0	0	0	0	0	0	-0	1.77728	-0	0	0	0
2.809	-51.892124	129.499329	-23.437841	0.970798	0	-0.201448	0	0	0	0	0	0	-0	1.980579	-0	0	0	0
2.81	-57.75156	145.893631	-25.195227	0.971852	0	-0.201855	0	0	0	0	0	0	-0	2.183501	-0	0	0	0
2.811	-63.985516	163.8302	-27.023193	0.972831	0	-0.202252	0	0	0	0	0	0	-0	2.385205	-0	0	0	0
2.812	-70.574051	183.358719	-28.918865	0.973726	0	-0.202647	0	0	0	0	0	0	-0	2.58483	-0	0	0	0
2.813	-77.49045599999999	204.51619	-30.878365	0.974527	0	-0.203045	0	0	0	0	0	0	-0	2.781506	-0	0	0	0
2.814	-84.701149	227.325272	-32.896736	0.975225	0	-0.203449	0	0	0	0	0	0	-0	2.974349	-0	0	0	0
2.815	-92.165611	251.792725	-34.967896	0.97581	0	-0.203862	0	0	0	0	0	0	-0	3.162475	-0	0	0	0
2.816	-99.83667	277.908081	-37.084591	0.9762729999999999	0	-0.204287	0	0	0	0	0	0	-0	3.345	-0	0	0	0
2.817	-107.660866	305.642731	-39.238369	0.9766049999999999	0	-0.204724	0	0	0	0	0	0	-0	3.521042	-0	0	0	0
2.818	-115.57917	334.949554	-41.41959	0.9767980000000001	0	-0.205176	0	0	0	0	0	0	-0	3.689736	-0	0	0	0
2.819	-123.527855	365.762634	-43.617413	0.976843	0	-0.205642	0	0	0	0	0	0	-0	3.850229	-0	0	0	0
2.82	-131.439667	397.997894	-45.819874	0.976734	0	-0.206123	0	0	0	0	0	0	-0	4.001692	-0	0	0	0
2.821	-139.245239	431.554016	-48.013916	0.976463	0	-0.20662	0	0	0	0	0	0	-0	4.143323	-0	0	0	0
2.822	-146.874573	466.313843	-50.185478	0.9760259999999999	0	-0.207133	0	0	0	0	0	0	-0	4.274354	-0	0	0	0
2.823	-154.258957	502.146362	-52.319622	0.975417	0	-0.207662	0	0	0	0	0	0	-0	4.394053	-0	0	0	0
2.824	-161.332672	538.908997	-54.400635	0.974633	0	-0.208208	0	0	0	0	0	0	-0	4.501736	-0	0	0	0
2.825	-168.035065	576.450378	-56.412201	0.973671	0	-0.20877	0	0	0	0	0	0	-0	4.596765	-0	0	0	0
2.826	-174.312378	614.613098	-58.337551	0.97253	0	-0.209349	0	0	0	0	0	0	-0	4.678559	-0	0	0	0
2.827	-180.119659	653.236816	-60.159676	0.97121	0	-0.209945	0	0	0	0	0	0	-0	4.746596	-0	0	0	0
2.828	-185.422348	692.161194	-61.861511	0.969711	0	-0.210557	0	0	0	0	0	0	-0	4.800419	-0	0	0	0
2.829	-190.197739	731.229004	-63.426167	0.968036	0	-0.211186	0	0	0	0	0	0	-0	4.83964	-0	0	0	0
2.83	-194.43602	770.288696	-64.83715100000001	0.966189	0	-0.21183	0	0	0	0	0	0	-0	4.863943	-0	0	0	0
2.831	-198.140869	809.196777	-66.078598	0.964175	0	-0.212489	0	0	0	0	0	0	-0	4.873091	-0	0	0	0
2.832	-201.329681	847.819702	-67.13552900000001	0.962002	0	-0.213163	0	0	0	0	0	0	-0	4.866927	-0	0	0	0
2.833	-204.033142	886.035767	-67.99408	0.959677	0	-0.21385	0	0	0	0	0	0	-0	4.845376	-0	0	0	0
2.834	-206.294388	923.735718	-68.641716	0.957211	0	-0.214548	0	0	0	0	0	0	-0	4.808452	-0	0	0	0
2.835	-208.167542	960.823547	-69.067505	0.954615	0	-0.215257	0	0	0	0	0	0	-0	4.756251	-0	0	0	0
2.836	-209.715836	997.216675	-69.262299	0.951904	0	-0.215974	0	0	0	0	0	0	-0	4.688963	-0	0	0	0
2.837	-211.009308	1032.845459	-69.21895600000001	0.94909	0	-0.216697	0	0	0	0	0	0	-0	4.606865	-0	0	0	0
2.838	-212.122177	1067.652832	-68.93250999999999	0.946191	0	-0.217424	0	0	0	0	0	0	-0	4.510325	-0	0	0	0
2.839	-213.130081	1101.593506	-68.400345	0.943223	0	-0.218152	0	0	0	0	0	0	-0	4.399797	-0	0	0	0
2.84	-214.107178	1134.632446	-67.622299	0.940203	0	-0.218878	0	0	0	0	0	0	-0	4.275825	-0	0	0	0
2.841	-215.123444	1166.744507	-66.600807	0.937147	0	-0.2196	0	0	0	0	0	0	-0	4.139039	-0	0	0	0
2.842	-216.242157	1197.912842	-65.340958	0.934073	0	-0.220315	0	0	0	0	0	0	-0	3.990149	-0	0	0	0
2.843	-217.517731	1228.128052	-63.850517	0.930997	0	-0.221019	0	0	0	0	0	0	-0	3.829949	-0	0	0	0
2.844	-218.993973	1257.387085	-62.139938	0.927934	0	-0.22171	0	0	0	0	0	0	-0	3.659306	-0	0	0	0
2.845	-220.703003	1285.692993	-60.222309	0.924897	0	-0.222386	0	0	0	0	0	0	-0	3.479157	-0	0	0	0
2.846	-222.664627	1313.053467	-58.113297	0.921897	0	-0.223043	0	0	0	0	0	0	-0	3.290509	-0	0	0	0
2.847	-224.886307	1339.480835	-55.830986	0.918944	0	-0.22368	0	0	0	0	0	0	-0	3.094427	-0	0	0	0
2.848	-227.363663	1364.991821	-53.395748	0.9160430000000001	0	-0.224295	0	0	0	0	0	0	-0	2.892029	-0	0	0	0
2.849	-230.081497	1389.606201	-50.830025	0.913201	0	-0.224887	0	0	0	0	0	0	-0	2.684484	-0	0	0	0
2.85	-233.015045	1413.347656	-48.158073	0.910417	0	-0.225454	0	0	0	0	0	0	-0	2.472998	-0	0	0	0
2.851	-236.131683	1436.242432	-45.405704	0.907691	0	-0.225997	0	0	0	0	0	0	-0	2.258811	-0	0	0	0
2.852	-239.392593	1458.319702	-42.599972	0.90502	0	-0.226515	0	0	0	0	0	0	-0	2.043188	-0	0	0	0
2.853	-242.754578	1479.610718	-39.768814	0.9024	0	-0.227008	0	0	0	0	0	0	-0	1.82741	-0	0	0	0
2.854	-246.171677	1500.148193	-36.940712	0.899822	0	-0.227478	0	0	0	0	0	0	-0	1.612769	-0	0	0	0
2.855	-249.596771	1519.966309	-34.144295	0.897279	0	-0.227925	0	0	0	0	0	0	-0	1.400554	-0	0	0	0
2.856	-252.982864	1539.099976	-31.407957	0.8947619999999999	0	-0.228351	0	0	0	0	0	0	-0	1.192048	-0	0	0	0
2.857	-256.284119	1557.584473	-28.759462	0.892261	0	-0.228757	0	0	0	0	0	0	-0	0.988518	-0	0	0	0
2.858	-259.456665	1575.454468	-26.225552	0.889765	0	-0.229147	0	0	0	0	0	0	-0	0.791203	-0	0	0	0
2.859	-262.459198	1592.744263	-23.831562	0.887263	0	-0.22952	0	0	0	0	0	0	-0	0.601314	-0	0	0	0
2.86	-265.253265	1609.487305	-21.60107	0.884747	0	-0.22988	0	0	0	0	0	0	-0	0.420019	-0	0	0	0
2.861	-267.803619	1625.715698	-19.555559	0.882207	0	-0.230228	0	0	0	0	0	0	-0	0.248438	-0	0	0	0
